<svg width="15" height="11" viewBox="0 0 15 11" fill="none" xmlns="http://www.w3.org/2000/svg">
<path d="M4.9 10.168C7.504 10.168 9.184 8.25 9.184 5.128C9.184 1.95 7.518 0.116 4.9 0.116C2.296 0.116 0.616 1.936 0.616 5.128C0.616 8.25 2.296 10.168 4.9 10.168ZM4.9 8.474C3.416 8.474 2.436 7.284 2.436 5.142C2.436 3 3.416 1.81 4.9 1.81C6.384 1.81 7.364 3.014 7.364 5.142C7.364 7.27 6.384 8.474 4.9 8.474ZM13.7104 8.516V0.269999H11.9324V1.628H10.3784V3.112H11.9324V8.516H10.3364V10H14.9284V8.516H13.7104Z" fill="white"/>
</svg>
